<?xml version="1.0" encoding="UTF-8" standalone="no"?>
<!-- Created with Inkscape (http://www.inkscape.org/) -->

<svg
   xmlns:dc="http://purl.org/dc/elements/1.1/"
   xmlns:cc="http://creativecommons.org/ns#"
   xmlns:rdf="http://www.w3.org/1999/02/22-rdf-syntax-ns#"
   xmlns:svg="http://www.w3.org/2000/svg"
   xmlns="http://www.w3.org/2000/svg"
   xmlns:sodipodi="http://sodipodi.sourceforge.net/DTD/sodipodi-0.dtd"
   xmlns:inkscape="http://www.inkscape.org/namespaces/inkscape"
   id="svg8714"
   version="1.1"
   inkscape:version="0.48.4 r9939"
   width="632.28998"
   height="204.67751"
   xml:space="preserve"
   sodipodi:docname="clinical-source.pdf"><metadata
     id="metadata8720"><rdf:RDF><cc:Work
         rdf:about=""><dc:format>image/svg+xml</dc:format><dc:type
           rdf:resource="http://purl.org/dc/dcmitype/StillImage" /><dc:title></dc:title></cc:Work></rdf:RDF></metadata><defs
     id="defs8718"><clipPath
       clipPathUnits="userSpaceOnUse"
       id="clipPath8804"><path
         d="m 66.613,810.816 146.359,0 0,-127.91 -146.359,0 0,127.91 z"
         id="path8806"
         inkscape:connector-curvature="0" /></clipPath><clipPath
       clipPathUnits="userSpaceOnUse"
       id="clipPath8812"><path
         d="M 0,0 596,0 596,842 0,842 0,0 z"
         id="path8814"
         inkscape:connector-curvature="0" /></clipPath><clipPath
       clipPathUnits="userSpaceOnUse"
       id="clipPath8836"><path
         d="m 393.453,810.816 146.355,0 0,-127.906 -146.355,0 0,127.906 z"
         id="path8838"
         inkscape:connector-curvature="0" /></clipPath><clipPath
       clipPathUnits="userSpaceOnUse"
       id="clipPath8844"><path
         d="M 0,0 596,0 596,842 0,842 0,0 z"
         id="path8846"
         inkscape:connector-curvature="0" /></clipPath><clipPath
       clipPathUnits="userSpaceOnUse"
       id="clipPath9004"><path
         d="m 230.031,810.816 146.359,0 0,-127.906 -146.359,0 0,127.906 z"
         id="path9006"
         inkscape:connector-curvature="0" /></clipPath><clipPath
       clipPathUnits="userSpaceOnUse"
       id="clipPath9012"><path
         d="M 0,0 596,0 596,842 0,842 0,0 z"
         id="path9014"
         inkscape:connector-curvature="0" /></clipPath></defs><sodipodi:namedview
     pagecolor="#ffffff"
     bordercolor="#666666"
     borderopacity="1"
     objecttolerance="10"
     gridtolerance="10"
     guidetolerance="10"
     inkscape:pageopacity="0"
     inkscape:pageshadow="2"
     inkscape:window-width="1366"
     inkscape:window-height="706"
     id="namedview8716"
     showgrid="false"
     fit-margin-top="10"
     fit-margin-left="10"
     fit-margin-right="10"
     fit-margin-bottom="10"
     inkscape:zoom="0.89702957"
     inkscape:cx="322.06724"
     inkscape:cy="128.84797"
     inkscape:window-x="-8"
     inkscape:window-y="-8"
     inkscape:window-maximized="1"
     inkscape:current-layer="g8722" /><g
     id="g8722"
     inkscape:groupmode="layer"
     inkscape:label="clinical-source"
     transform="matrix(1.25,0,0,-1.25,-49.98,1029.8863)"><g
       id="g8724"><path
         d="m 47.984,815.909 489.832,0 0,-147.742 -489.832,0 0,147.742 z"
         style="fill:#ffffff;fill-opacity:1;fill-rule:nonzero;stroke:none"
         id="path8726"
         inkscape:connector-curvature="0" /><g
         id="g8728"
         transform="matrix(1,0,0,-1,0,841.88977)"><path
           d="m 71.844,154.793 0,3.074"
           style="fill:none;stroke:#000000;stroke-width:0.80000001;stroke-linecap:round;stroke-linejoin:round;stroke-miterlimit:10;stroke-opacity:1;stroke-dasharray:none"
           id="path8730"
           inkscape:connector-curvature="0" /></g><g
         id="g8732"
         transform="matrix(1,0,0,-1,0,841.88977)"><path
           d="m 92.563,154.793 0,3.074"
           style="fill:none;stroke:#000000;stroke-width:0.80000001;stroke-linecap:round;stroke-linejoin:round;stroke-miterlimit:10;stroke-opacity:1;stroke-dasharray:none"
           id="path8734"
           inkscape:connector-curvature="0" /></g><g
         id="g8736"
         transform="matrix(1,0,0,-1,0,841.88977)"><path
           d="m 113.289,154.793 0,3.074"
           style="fill:none;stroke:#000000;stroke-width:0.80000001;stroke-linecap:round;stroke-linejoin:round;stroke-miterlimit:10;stroke-opacity:1;stroke-dasharray:none"
           id="path8738"
           inkscape:connector-curvature="0" /></g><g
         id="g8740"
         transform="matrix(1,0,0,-1,0,841.88977)"><path
           d="m 134.008,154.793 0,3.074"
           style="fill:none;stroke:#000000;stroke-width:0.80000001;stroke-linecap:round;stroke-linejoin:round;stroke-miterlimit:10;stroke-opacity:1;stroke-dasharray:none"
           id="path8742"
           inkscape:connector-curvature="0" /></g><g
         id="g8744"
         transform="matrix(1,0,0,-1,0,841.88977)"><path
           d="m 154.727,154.793 0,3.074"
           style="fill:none;stroke:#000000;stroke-width:0.80000001;stroke-linecap:round;stroke-linejoin:round;stroke-miterlimit:10;stroke-opacity:1;stroke-dasharray:none"
           id="path8746"
           inkscape:connector-curvature="0" /></g><g
         id="g8748"
         transform="matrix(1,0,0,-1,0,841.88977)"><path
           d="m 175.449,154.793 0,3.074"
           style="fill:none;stroke:#000000;stroke-width:0.80000001;stroke-linecap:round;stroke-linejoin:round;stroke-miterlimit:10;stroke-opacity:1;stroke-dasharray:none"
           id="path8750"
           inkscape:connector-curvature="0" /></g><g
         id="g8752"
         transform="matrix(1,0,0,-1,0,841.88977)"><path
           d="m 196.168,154.793 0,3.074"
           style="fill:none;stroke:#000000;stroke-width:0.80000001;stroke-linecap:round;stroke-linejoin:round;stroke-miterlimit:10;stroke-opacity:1;stroke-dasharray:none"
           id="path8754"
           inkscape:connector-curvature="0" /></g><text
         transform="matrix(1,0,0,-1,70.420297,679.22918)"
         id="text8756"><tspan
           style="font-size:5.12458086px;font-variant:normal;font-weight:normal;writing-mode:lr-tb;fill:#000000;fill-opacity:1;fill-rule:nonzero;stroke:none;font-family:Arial;-inkscape-font-specification:ArialMT"
           x="0 19.294048 22.143314 38.588097 41.437363 44.286629 59.306774 62.156044 65.00531 80.033157 82.882423 85.731689 100.75184 103.6011 106.45037 121.47564 124.32491 127.17417"
           y="0"
           sodipodi:role="line"
           id="tspan8758">050100150200250300</tspan></text>
<g
         id="g8760"
         transform="matrix(1,0,0,-1,0,841.88977)"><path
           d="m 72.406,36.188 134.773,0 0,117.68 -134.773,0 0,-117.68 z"
           style="fill:none;stroke:#000000;stroke-width:2.79999995;stroke-linecap:square;stroke-linejoin:miter;stroke-miterlimit:10;stroke-opacity:1;stroke-dasharray:none"
           id="path8762"
           inkscape:connector-curvature="0" /></g><g
         id="g8764"
         transform="matrix(1,0,0,-1,0,841.88977)"><path
           d="m 71.414,154.246 -3.074,0"
           style="fill:none;stroke:#000000;stroke-width:0.80000001;stroke-linecap:round;stroke-linejoin:round;stroke-miterlimit:10;stroke-opacity:1;stroke-dasharray:none"
           id="path8766"
           inkscape:connector-curvature="0" /></g><g
         id="g8768"
         transform="matrix(1,0,0,-1,0,841.88977)"><path
           d="m 71.414,130.559 -3.074,0"
           style="fill:none;stroke:#000000;stroke-width:0.80000001;stroke-linecap:round;stroke-linejoin:round;stroke-miterlimit:10;stroke-opacity:1;stroke-dasharray:none"
           id="path8770"
           inkscape:connector-curvature="0" /></g><g
         id="g8772"
         transform="matrix(1,0,0,-1,0,841.88977)"><path
           d="m 71.414,106.871 -3.074,0"
           style="fill:none;stroke:#000000;stroke-width:0.75;stroke-linecap:round;stroke-linejoin:round;stroke-miterlimit:10;stroke-opacity:1;stroke-dasharray:none"
           id="path8774"
           inkscape:connector-curvature="0" /></g><g
         id="g8776"
         transform="matrix(1,0,0,-1,0,841.88977)"><path
           d="m 71.414,83.188 -3.074,0"
           style="fill:none;stroke:#000000;stroke-width:0.75;stroke-linecap:round;stroke-linejoin:round;stroke-miterlimit:10;stroke-opacity:1;stroke-dasharray:none"
           id="path8778"
           inkscape:connector-curvature="0" /></g><g
         id="g8780"
         transform="matrix(1,0,0,-1,0,841.88977)"><path
           d="m 71.414,59.496 -3.074,0"
           style="fill:none;stroke:#000000;stroke-width:0.75;stroke-linecap:round;stroke-linejoin:round;stroke-miterlimit:10;stroke-opacity:1;stroke-dasharray:none"
           id="path8782"
           inkscape:connector-curvature="0" /></g><g
         id="g8784"
         transform="matrix(1,0,0,-1,0,841.88977)"><path
           d="m 71.414,35.809 -3.074,0"
           style="fill:none;stroke:#000000;stroke-width:0.75;stroke-linecap:round;stroke-linejoin:round;stroke-miterlimit:10;stroke-opacity:1;stroke-dasharray:none"
           id="path8786"
           inkscape:connector-curvature="0" /></g><text
         transform="matrix(0,1,1,0,65.528742,684.08181)"
         id="text8788"><tspan
           style="font-size:5.12456608px;font-variant:normal;font-weight:normal;writing-mode:lr-tb;fill:#000000;fill-opacity:1;fill-rule:nonzero;stroke:none;font-family:Arial;-inkscape-font-specification:ArialMT"
           x="0 2.8492587 4.2687635 23.68062 26.529879 27.949383 47.366364 50.215622 51.635128 71.041855 73.891121 75.310623 94.748955 97.598213 99.017715 118.42957 121.27883 122.69833"
           y="0"
           sodipodi:role="line"
           id="tspan8790">0.00.20.40.60.81.0</tspan></text>
<text
         transform="matrix(1,0,0,-1,130.63588,670.73939)"
         id="text8792"><tspan
           style="font-size:5.12456608px;font-variant:normal;font-weight:normal;writing-mode:lr-tb;fill:#000000;fill-opacity:1;fill-rule:nonzero;stroke:none;font-family:Arial;-inkscape-font-specification:ArialMT"
           x="0 3.2079782 6.0572371 7.4767418 8.6143951 11.463655 14.312913 15.732418"
           y="0"
           sodipodi:role="line"
           id="tspan8794">Patients</tspan></text>
<text
         transform="matrix(0,1,1,0,56.534612,734.90042)"
         id="text8796"><tspan
           style="font-size:5.12456608px;font-variant:normal;font-weight:normal;writing-mode:lr-tb;fill:#000000;fill-opacity:1;fill-rule:nonzero;stroke:none;font-family:Arial;-inkscape-font-specification:ArialMT"
           x="0 3.412961 5.1194415 7.9686999 10.817959 13.667217 16.516476 17.654129 18.791784 19.929438 21.348942"
           y="0"
           sodipodi:role="line"
           id="tspan8798">Probability</tspan></text>
</g><g
       id="g8800"><g
         id="g8802"
         clip-path="url(#clipPath8804)"><g
           id="g8808"
           transform="translate(0,-0.110229)"><g
             id="g8810" /><g
             id="g8816"><g
               clip-path="url(#clipPath8812)"
               id="g8818"><g
                 id="g8820"><path
                   d="m 72.031,687.754 0,118.437 135.52,0 0,-118.437 -135.52,0 z"
                   style="fill:#cd2626;fill-opacity:1;fill-rule:nonzero;stroke:none"
                   id="path8822"
                   inkscape:connector-curvature="0" /><path
                   d="m 72.031,687.754 0,105.91 0.414,-5.402 0.414,-0.953 0.414,-0.313 0.418,-3.961 0.418,-1.648 0.414,-0.977 0.415,-3.363 0.414,-0.473 0.414,-0.211 0.414,-0.289 0.414,-0.625 0.414,-0.187 0.414,-0.117 0.414,-0.122 0.414,-1.359 0.414,0 0.414,-0.051 0.414,-0.043 0.414,-0.254 0.414,-1.695 0.414,-0.144 0.414,-0.219 0.415,-3.516 0.414,-1.449 0.414,-0.02 0.414,-0.164 0.422,-0.015 0.414,-0.012 0.414,-0.016 0.414,-0.007 0.414,-0.024 0.414,-0.012 0.414,-0.039 0.414,-0.007 0.414,-0.004 0.414,-0.063 0.414,-0.019 0.414,-0.012 0.414,-0.137 0.414,-0.035 0.414,-0.137 0.415,-0.05 0.414,-0.082 0.414,-0.067 0.414,-0.305 0.414,-0.093 0.414,-0.004 0.418,-0.168 0.414,-0.004 0.418,-0.27 0.414,-0.156 0.414,-0.137 0.414,-0.011 0.414,-0.129 0.414,-0.028 0.414,-0.007 0.414,-0.028 0.414,-0.011 0.414,-0.008 0.414,-0.074 0.415,-0.024 0.414,-0.012 0.414,-0.605 0.414,-0.035 0.414,-0.032 0.414,-0.089 0.414,-0.442 0.418,-0.027 0.414,-0.016 0.414,-0.004 0.414,-0.093 0.414,-0.004 0.418,-0.032 0.414,-0.015 0.414,-0.004 0.414,-0.031 0.414,-0.047 0.414,-0.043 0.414,-0.024 0.415,-0.011 0.414,0 0.414,-0.012 0.828,-0.008 0.414,-0.023 0.414,-0.016 0.414,-0.019 0.414,-0.032 0.418,0 0.414,-0.019 0.414,-0.008 0.414,0 0.414,-0.008 0.414,-0.058 0.414,-0.028 0.418,-0.066 0.414,-0.043 0.829,-0.219 0.414,-0.027 0.414,-0.008 0.414,0 0.414,-0.012 0.414,-0.004 0.414,-0.019 0.414,0 0.414,-0.008 0.414,-0.012 0.418,-0.008 0.414,-0.003 0.828,-0.016 0.414,0 0.414,-0.02 0.414,-0.031 0.829,-0.008 0.418,-0.031 0.414,-0.004 0.414,0 0.414,-0.019 0.414,-0.032 0.414,-0.004 0.414,-0.007 0.414,-0.004 0.414,-0.028 0.414,0 0.414,-0.007 0.418,-0.008 0.414,-0.008 0.414,-0.012 0.414,-0.004 0.414,-0.007 0.414,-0.043 0.414,-0.024 0.415,0 0.414,-0.004 0.414,0 0.414,-0.008 0.414,-0.015 0.418,0 0.414,-0.016 0.414,0 0.414,-0.027 0.414,-0.024 0.414,-0.234 0.414,-0.023 0.414,-0.207 0.414,-0.047 0.418,-0.082 0.414,-0.176 0.414,-0.004 0.414,-0.008 0.414,-0.055 0.415,-0.062 0.414,-0.02 0.828,0 0.414,-0.004 0.414,-0.035 0.414,-0.015 0.414,-0.012 0.414,0 0.418,-0.008 0.828,0 0.414,-0.012 0.414,-0.003 0.414,-0.04 0.418,0 0.414,-0.015 0.414,-0.012 0.414,-0.004 0.415,0 0.414,-0.011 0.414,-0.032 0.414,-0.008 0.414,-0.011 0.414,0 0.414,-0.012 0.414,-0.004 0.414,-0.008 1.242,-0.011 0.414,0 0.418,-0.008 0.414,-0.004 0.414,0 0.418,-0.004 0.828,0 0.415,-0.008 0.414,0 0.414,-0.004 0.414,-0.019 0.828,0 0.414,-0.008 0.414,-0.004 0.414,0 2.07,-0.02 0.414,0 0.829,-0.007 0.418,0 0.417,-0.004 0.415,-0.02 0.414,-0.004 0.828,-0.015 0.414,0 0.414,-0.004 1.242,0 0.414,-0.004 0.414,-0.012 0.414,-0.008 0.414,0 0.828,-0.007 0.414,0 0.415,-0.004 0.414,0 0.828,-0.008 0.422,-0.008 0.828,0 0.414,-0.02 0.414,-0.003 0.414,-0.008 0.828,0 0.414,-0.012 0.414,0 0.414,-0.012 0.414,-0.004 0.414,0 0.828,-0.015 0.415,0 0.414,-0.008 0.414,-0.016 0.414,-0.004 0.414,-0.019 0.414,0 0.418,-0.004 0.414,-0.004 0.418,0 0.414,-0.004 0.414,-0.015 0.828,-0.008 0.414,-0.043 0.414,0 0.414,-0.012 0.414,-0.008 0.828,-0.039 0.415,-0.008 0.414,-0.004 0.414,-0.019 0.414,-0.039 0.414,-0.004 0.414,-0.074 0.414,-0.004 0.418,-0.012 0.414,-0.008 0.414,-0.062 0.414,-0.047 0.414,-0.024 0.418,-0.007 0.414,-0.016 0.828,-0.062 0.414,-0.059 0.414,0 0.414,-0.156 0.415,-0.059 0.414,-0.156 0.414,-0.047 0.414,-0.055 0.414,-0.8 0.414,-1.649 0.414,-0.457 0.414,-0.629 0.414,-0.058 0.418,-0.133 0.414,-0.246 0.414,-0.055 0.414,-0.215 0.414,-0.152 0.414,-0.492 0.414,-0.247 0.418,-0.562 0.414,-0.117 0.414,-0.098 0.415,-1.062 0.414,-0.02 0.414,-0.223 0.414,-0.441 0.414,-0.519 0.414,-9.438 0.414,-0.027 0.414,-1.684 0.414,-0.012 0.414,-0.015 0.418,-0.051 0.414,-0.148 0.414,-0.09 0.414,-0.043 0.414,-0.055 0.414,-0.117 0.414,-0.024 0.415,-0.129 0.414,-0.195 0.414,-0.117 0.418,-0.063 0.414,-0.082 0.414,-0.343 0.414,-0.516 0,-49.66 -135.52,0 z"
                   style="fill:#eeee00;fill-opacity:1;fill-rule:nonzero;stroke:none"
                   id="path8824"
                   inkscape:connector-curvature="0" /></g></g></g></g></g></g><g
       id="g8826"><g
         id="g8828"
         transform="matrix(1,0,0,-1,0,841.88977)"><path
           d="m 399.246,36.188 134.773,0 0,117.68 -134.773,0 0,-117.68 z"
           style="fill:none;stroke:#000000;stroke-width:2.79999995;stroke-linecap:square;stroke-linejoin:miter;stroke-miterlimit:10;stroke-opacity:1;stroke-dasharray:none"
           id="path8830"
           inkscape:connector-curvature="0" /></g></g><g
       id="g8832"><g
         id="g8834"
         clip-path="url(#clipPath8836)"><g
           id="g8840"
           transform="translate(0,-0.110229)"><g
             id="g8842" /><g
             id="g8848"><g
               clip-path="url(#clipPath8844)"
               id="g8850"><g
                 id="g8852"><path
                   d="m 398.871,687.754 0,118.437 135.52,0 0,-118.437 -135.52,0 z"
                   style="fill:#ff69b4;fill-opacity:1;fill-rule:nonzero;stroke:none"
                   id="path8854"
                   inkscape:connector-curvature="0" /><path
                   d="m 398.871,687.754 0,108.465 1.059,-6.235 1.058,-2.238 1.063,-0.371 1.058,-0.098 1.059,0.098 1.059,-2.801 1.058,-4.261 1.059,-0.551 1.058,-0.164 1.055,-0.426 1.059,-0.117 1.062,0.07 1.059,-2.508 1.058,0.496 1.059,-0.234 1.059,0.176 1.058,-0.344 1.059,0.055 1.058,0.277 1.063,-0.309 1.058,-0.117 1.055,0.039 1.059,0.051 1.058,-0.414 1.059,-0.285 1.058,0.25 1.059,-0.141 1.059,-0.113 1.062,0.023 1.059,0.891 1.058,-0.051 1.059,-0.133 1.059,0.133 1.054,-0.133 1.059,-0.781 1.058,-0.105 1.059,-0.438 1.062,0.223 1.059,0.058 1.059,0.036 1.058,-0.067 1.059,-0.222 1.058,0.039 1.059,0.457 1.059,-0.25 1.054,-0.286 1.063,0.122 1.058,-0.063 1.059,0.133 1.059,-0.223 1.058,-0.043 1.059,-0.187 1.058,0.113 1.059,-0.363 1.062,0.16 1.059,0.277 1.059,-0.402 1.054,0.195 1.059,-0.176 1.059,0.219 1.058,-0.078 1.059,-0.023 1.062,0.121 1.059,0.011 1.058,-0.367 1.059,0.141 1.059,-0.098 1.058,-0.121 1.059,0.067 1.054,0.093 1.059,-0.277 1.063,-0.035 1.058,-0.106 1.059,0.289 1.058,-0.136 1.059,0.238 1.059,0.074 1.058,-0.211 1.059,-0.082 1.062,0.211 1.059,-0.164 1.055,-0.246 1.058,0.117 1.059,0.164 1.058,-0.297 1.059,0.086 1.058,-0.121 1.059,-0.441 1.063,0 1.058,0.125 1.059,0.09 1.058,-0.18 1.059,-0.313 1.055,0.059 1.058,-0.066 1.059,0.16 1.058,-3.996 1.063,0.156 1.059,-19.664 1.058,0.332 1.059,-0.156 1.058,25.023 1.059,-0.129 1.058,0.094 1.059,2.484 1.055,0.219 1.062,-0.387 1.059,0.039 1.058,0.086 1.059,0.317 1.059,-0.282 1.058,0.149 1.059,-0.027 1.058,-0.25 1.063,-0.153 1.059,0.367 1.058,0.106 1.055,-0.215 1.058,0.395 1.059,0.515 1.059,-0.019 1.058,-0.18 1.059,-0.574 1.062,-42.481 1.059,42.067 1.058,1.636 1.059,-0.148 1.059,0.605 0,-92.019 -135.52,0 z"
                   style="fill:#cd2626;fill-opacity:1;fill-rule:nonzero;stroke:none"
                   id="path8856"
                   inkscape:connector-curvature="0" /><path
                   d="m 398.871,687.754 0,101.668 1.059,-13.059 1.058,-3.59 1.063,-1.136 1.058,-0.02 1.059,-0.086 1.059,-6.558 1.058,-7.43 1.059,-0.172 1.058,-0.469 1.055,-3.191 1.059,-0.129 1.062,-0.098 1.059,-4.214 1.058,-0.04 1.059,-0.042 2.117,-0.024 1.059,-0.016 1.058,-0.003 1.063,-0.032 1.058,-0.109 1.055,-0.152 1.059,-0.079 1.058,-0.312 1.059,-0.125 1.058,-0.133 1.059,-0.023 1.059,-0.016 1.062,-0.176 1.059,-0.476 1.058,-0.082 1.059,-0.043 1.059,-0.121 1.054,-0.196 1.059,-1.379 1.058,-0.027 1.059,-0.109 1.062,-0.047 1.059,-0.016 1.059,-0.054 1.058,-0.016 1.059,-0.035 1.058,-0.024 1.059,-0.445 1.059,-0.168 1.054,-0.035 1.063,-0.133 1.058,-0.016 1.059,-0.046 1.059,-0.231 1.058,-0.851 1.059,-0.024 1.058,-0.043 1.059,-0.141 2.121,0 1.059,-0.062 1.054,-0.047 1.059,-0.019 1.059,-0.051 1.058,-0.008 1.059,-0.039 1.062,-0.012 1.059,-0.012 1.058,-0.035 1.059,0 1.059,-0.043 1.058,-0.054 1.059,-0.02 1.054,-0.004 1.059,-0.015 1.063,-0.008 1.058,-0.035 3.176,-0.012 1.059,-0.02 1.058,-0.058 1.059,-0.02 1.062,-0.031 1.059,-0.059 1.055,-0.011 2.117,-0.016 1.058,-0.016 1.059,-0.07 1.058,-1.109 1.059,-0.594 1.063,-0.102 1.058,-0.082 1.059,-0.003 1.058,-0.329 1.059,-0.082 1.055,-0.007 1.058,-0.375 1.059,-10.758 1.058,-5.516 1.063,-0.203 1.059,-3.504 1.058,0 1.059,-0.008 1.058,-0.972 1.059,-0.016 1.058,-0.113 1.059,-6.485 1.055,-0.09 1.062,-0.066 1.059,-0.004 1.058,-0.008 1.059,-0.004 1.059,-0.019 1.058,-0.008 1.059,-0.023 1.058,-0.035 1.063,-0.004 1.059,-0.004 1.058,-0.032 1.055,-0.05 1.058,-0.231 1.059,-0.222 1.059,-0.008 1.058,-0.028 1.059,-0.011 1.062,-0.75 1.059,-0.039 1.058,-0.411 1.059,-0.078 1.059,-0.027 0,-22.289 -135.52,0 z"
                   style="fill:#eeee00;fill-opacity:1;fill-rule:nonzero;stroke:none"
                   id="path8858"
                   inkscape:connector-curvature="0" /></g></g></g></g></g></g><g
       id="g8860"><g
         id="g8862"
         transform="matrix(1,0,0,-1,0,841.88977)"><path
           d="m 398.668,154.793 0,3.074"
           style="fill:none;stroke:#000000;stroke-width:0.80000001;stroke-linecap:round;stroke-linejoin:round;stroke-miterlimit:10;stroke-opacity:1;stroke-dasharray:none"
           id="path8864"
           inkscape:connector-curvature="0" /></g><g
         id="g8866"
         transform="matrix(1,0,0,-1,0,841.88977)"><path
           d="m 418.988,154.793 0,3.074"
           style="fill:none;stroke:#000000;stroke-width:0.80000001;stroke-linecap:round;stroke-linejoin:round;stroke-miterlimit:10;stroke-opacity:1;stroke-dasharray:none"
           id="path8868"
           inkscape:connector-curvature="0" /></g><g
         id="g8870"
         transform="matrix(1,0,0,-1,0,841.88977)"><path
           d="m 440.164,154.793 0,3.074"
           style="fill:none;stroke:#000000;stroke-width:0.80000001;stroke-linecap:round;stroke-linejoin:round;stroke-miterlimit:10;stroke-opacity:1;stroke-dasharray:none"
           id="path8872"
           inkscape:connector-curvature="0" /></g><g
         id="g8874"
         transform="matrix(1,0,0,-1,0,841.88977)"><path
           d="m 461.336,154.793 0,3.074"
           style="fill:none;stroke:#000000;stroke-width:0.80000001;stroke-linecap:round;stroke-linejoin:round;stroke-miterlimit:10;stroke-opacity:1;stroke-dasharray:none"
           id="path8876"
           inkscape:connector-curvature="0" /></g><g
         id="g8878"
         transform="matrix(1,0,0,-1,0,841.88977)"><path
           d="m 482.512,154.793 0,3.074"
           style="fill:none;stroke:#000000;stroke-width:0.80000001;stroke-linecap:round;stroke-linejoin:round;stroke-miterlimit:10;stroke-opacity:1;stroke-dasharray:none"
           id="path8880"
           inkscape:connector-curvature="0" /></g><g
         id="g8882"
         transform="matrix(1,0,0,-1,0,841.88977)"><path
           d="m 503.688,154.793 0,3.074"
           style="fill:none;stroke:#000000;stroke-width:0.80000001;stroke-linecap:round;stroke-linejoin:round;stroke-miterlimit:10;stroke-opacity:1;stroke-dasharray:none"
           id="path8884"
           inkscape:connector-curvature="0" /></g><g
         id="g8886"
         transform="matrix(1,0,0,-1,0,841.88977)"><path
           d="m 524.859,154.793 0,3.074"
           style="fill:none;stroke:#000000;stroke-width:0.80000001;stroke-linecap:round;stroke-linejoin:round;stroke-miterlimit:10;stroke-opacity:1;stroke-dasharray:none"
           id="path8888"
           inkscape:connector-curvature="0" /></g><text
         transform="matrix(1,0,0,-1,397.2599,679.22795)"
         id="text8890"><tspan
           style="font-size:5.12456608px;font-variant:normal;font-weight:normal;writing-mode:lr-tb;fill:#000000;fill-opacity:1;fill-rule:nonzero;stroke:none;font-family:Arial;-inkscape-font-specification:ArialMT"
           x="0 18.878901 21.728159 40.053608 42.902866 61.22319 64.072449 82.40493 85.254189 102.14988 104.99914 107.8484 123.32458 126.17384 129.0231"
           y="0"
           sodipodi:role="line"
           id="tspan8892">020406080100120</tspan></text>
<g
         id="g8894"
         transform="matrix(1,0,0,-1,0,841.88977)"><path
           d="m 398.254,154.246 -3.074,0"
           style="fill:none;stroke:#000000;stroke-width:0.80000001;stroke-linecap:round;stroke-linejoin:round;stroke-miterlimit:10;stroke-opacity:1;stroke-dasharray:none"
           id="path8896"
           inkscape:connector-curvature="0" /></g><g
         id="g8898"
         transform="matrix(1,0,0,-1,0,841.88977)"><path
           d="m 398.254,130.559 -3.074,0"
           style="fill:none;stroke:#000000;stroke-width:0.80000001;stroke-linecap:round;stroke-linejoin:round;stroke-miterlimit:10;stroke-opacity:1;stroke-dasharray:none"
           id="path8900"
           inkscape:connector-curvature="0" /></g><g
         id="g8902"
         transform="matrix(1,0,0,-1,0,841.88977)"><path
           d="m 398.254,106.871 -3.074,0"
           style="fill:none;stroke:#000000;stroke-width:0.80000001;stroke-linecap:round;stroke-linejoin:round;stroke-miterlimit:10;stroke-opacity:1;stroke-dasharray:none"
           id="path8904"
           inkscape:connector-curvature="0" /></g><g
         id="g8906"
         transform="matrix(1,0,0,-1,0,841.88977)"><path
           d="m 398.254,83.188 -3.074,0"
           style="fill:none;stroke:#000000;stroke-width:0.80000001;stroke-linecap:round;stroke-linejoin:round;stroke-miterlimit:10;stroke-opacity:1;stroke-dasharray:none"
           id="path8908"
           inkscape:connector-curvature="0" /></g><g
         id="g8910"
         transform="matrix(1,0,0,-1,0,841.88977)"><path
           d="m 398.254,59.496 -3.074,0"
           style="fill:none;stroke:#000000;stroke-width:0.80000001;stroke-linecap:round;stroke-linejoin:round;stroke-miterlimit:10;stroke-opacity:1;stroke-dasharray:none"
           id="path8912"
           inkscape:connector-curvature="0" /></g><g
         id="g8914"
         transform="matrix(1,0,0,-1,0,841.88977)"><path
           d="m 398.254,35.809 -3.074,0"
           style="fill:none;stroke:#000000;stroke-width:0.80000001;stroke-linecap:round;stroke-linejoin:round;stroke-miterlimit:10;stroke-opacity:1;stroke-dasharray:none"
           id="path8916"
           inkscape:connector-curvature="0" /></g><text
         transform="matrix(0,1,1,0,392.36835,684.08181)"
         id="text8918"><tspan
           style="font-size:5.12456608px;font-variant:normal;font-weight:normal;writing-mode:lr-tb;fill:#000000;fill-opacity:1;fill-rule:nonzero;stroke:none;font-family:Arial;-inkscape-font-specification:ArialMT"
           x="0 2.8492587 4.2687635 23.68062 26.529879 27.949383 47.366364 50.215622 51.635128 71.041855 73.891121 75.310623 94.748955 97.598213 99.017715 118.42957 121.27883 122.69833"
           y="0"
           sodipodi:role="line"
           id="tspan8920">0.00.20.40.60.81.0</tspan></text>
<text
         transform="matrix(1,0,0,-1,457.47548,670.73941)"
         id="text8922"><tspan
           style="font-size:5.12456608px;font-variant:normal;font-weight:normal;writing-mode:lr-tb;fill:#000000;fill-opacity:1;fill-rule:nonzero;stroke:none;font-family:Arial;-inkscape-font-specification:ArialMT"
           x="0 3.2079782 6.0572371 7.4767418 8.6143951 11.463655 14.312913 15.732418"
           y="0"
           sodipodi:role="line"
           id="tspan8924">Patients</tspan></text>
<text
         transform="matrix(0,1,1,0,383.37421,734.90043)"
         id="text8926"><tspan
           style="font-size:5.12456608px;font-variant:normal;font-weight:normal;writing-mode:lr-tb;fill:#000000;fill-opacity:1;fill-rule:nonzero;stroke:none;font-family:Arial;-inkscape-font-specification:ArialMT"
           x="0 3.412961 5.1194415 7.9686999 10.817959 13.667217 16.516476 17.654129 18.791784 19.929438 21.348942"
           y="0"
           sodipodi:role="line"
           id="tspan8928">Probability</tspan><tspan
           style="font-size:5.12456608px;font-variant:normal;font-weight:normal;writing-mode:lr-tb;fill:#000000;fill-opacity:1;fill-rule:nonzero;stroke:none;font-family:Arial;-inkscape-font-specification:ArialMT"
           x="8.3799996e-006 3.4129694 5.1194496 7.9687085 10.817967 13.667226 16.516485 17.654139 18.791792 19.929445 21.348949"
           y="-163.41978"
           sodipodi:role="line"
           id="tspan8930">Probability</tspan></text>
<g
         id="g8932"
         transform="matrix(1,0,0,-1,0,841.88977)"><path
           d="m 235.262,154.793 0,3.074"
           style="fill:none;stroke:#000000;stroke-width:0.80000001;stroke-linecap:round;stroke-linejoin:round;stroke-miterlimit:10;stroke-opacity:1;stroke-dasharray:none"
           id="path8934"
           inkscape:connector-curvature="0" /></g><g
         id="g8936"
         transform="matrix(1,0,0,-1,0,841.88977)"><path
           d="m 257.477,154.793 0,3.074"
           style="fill:none;stroke:#000000;stroke-width:0.80000001;stroke-linecap:round;stroke-linejoin:round;stroke-miterlimit:10;stroke-opacity:1;stroke-dasharray:none"
           id="path8938"
           inkscape:connector-curvature="0" /></g><g
         id="g8940"
         transform="matrix(1,0,0,-1,0,841.88977)"><path
           d="m 279.691,154.793 0,3.074"
           style="fill:none;stroke:#000000;stroke-width:0.80000001;stroke-linecap:round;stroke-linejoin:round;stroke-miterlimit:10;stroke-opacity:1;stroke-dasharray:none"
           id="path8942"
           inkscape:connector-curvature="0" /></g><g
         id="g8944"
         transform="matrix(1,0,0,-1,0,841.88977)"><path
           d="m 301.91,154.793 0,3.074"
           style="fill:none;stroke:#000000;stroke-width:0.80000001;stroke-linecap:round;stroke-linejoin:round;stroke-miterlimit:10;stroke-opacity:1;stroke-dasharray:none"
           id="path8946"
           inkscape:connector-curvature="0" /></g><g
         id="g8948"
         transform="matrix(1,0,0,-1,0,841.88977)"><path
           d="m 324.125,154.793 0,3.074"
           style="fill:none;stroke:#000000;stroke-width:0.80000001;stroke-linecap:round;stroke-linejoin:round;stroke-miterlimit:10;stroke-opacity:1;stroke-dasharray:none"
           id="path8950"
           inkscape:connector-curvature="0" /></g><g
         id="g8952"
         transform="matrix(1,0,0,-1,0,841.88977)"><path
           d="m 346.34,154.793 0,3.074"
           style="fill:none;stroke:#000000;stroke-width:0.80000001;stroke-linecap:round;stroke-linejoin:round;stroke-miterlimit:10;stroke-opacity:1;stroke-dasharray:none"
           id="path8954"
           inkscape:connector-curvature="0" /></g><g
         id="g8956"
         transform="matrix(1,0,0,-1,0,841.88977)"><path
           d="m 368.555,154.793 0,3.074"
           style="fill:none;stroke:#000000;stroke-width:0.80000001;stroke-linecap:round;stroke-linejoin:round;stroke-miterlimit:10;stroke-opacity:1;stroke-dasharray:none"
           id="path8958"
           inkscape:connector-curvature="0" /></g><text
         transform="matrix(1,0,0,-1,233.8401,679.2292)"
         id="text8960"><tspan
           style="font-size:5.12456608px;font-variant:normal;font-weight:normal;writing-mode:lr-tb;fill:#000000;fill-opacity:1;fill-rule:nonzero;stroke:none;font-family:Arial;-inkscape-font-specification:ArialMT"
           x="0 20.790363 23.639624 43.000233 45.849491 65.215225 68.064484 87.437912 90.28717 109.65291 112.50217 131.86278 134.71204"
           y="0"
           sodipodi:role="line"
           id="tspan8962">0102030405060</tspan></text>
<g
         id="g8964"
         transform="matrix(1,0,0,-1,0,841.88977)"><path
           d="m 235.824,36.188 134.773,0 0,117.68 -134.773,0 0,-117.68 z"
           style="fill:none;stroke:#000000;stroke-width:2.79999995;stroke-linecap:square;stroke-linejoin:miter;stroke-miterlimit:10;stroke-opacity:1;stroke-dasharray:none"
           id="path8966"
           inkscape:connector-curvature="0" /></g><g
         id="g8968"
         transform="matrix(1,0,0,-1,0,841.88977)"><path
           d="m 234.832,154.246 -3.074,0"
           style="fill:none;stroke:#000000;stroke-width:0.80000001;stroke-linecap:round;stroke-linejoin:round;stroke-miterlimit:10;stroke-opacity:1;stroke-dasharray:none"
           id="path8970"
           inkscape:connector-curvature="0" /></g><g
         id="g8972"
         transform="matrix(1,0,0,-1,0,841.88977)"><path
           d="m 234.832,130.559 -3.074,0"
           style="fill:none;stroke:#000000;stroke-width:0.80000001;stroke-linecap:round;stroke-linejoin:round;stroke-miterlimit:10;stroke-opacity:1;stroke-dasharray:none"
           id="path8974"
           inkscape:connector-curvature="0" /></g><g
         id="g8976"
         transform="matrix(1,0,0,-1,0,841.88977)"><path
           d="m 234.832,106.871 -3.074,0"
           style="fill:none;stroke:#000000;stroke-width:0.80000001;stroke-linecap:round;stroke-linejoin:round;stroke-miterlimit:10;stroke-opacity:1;stroke-dasharray:none"
           id="path8978"
           inkscape:connector-curvature="0" /></g><g
         id="g8980"
         transform="matrix(1,0,0,-1,0,841.88977)"><path
           d="m 234.832,83.188 -3.074,0"
           style="fill:none;stroke:#000000;stroke-width:0.80000001;stroke-linecap:round;stroke-linejoin:round;stroke-miterlimit:10;stroke-opacity:1;stroke-dasharray:none"
           id="path8982"
           inkscape:connector-curvature="0" /></g><g
         id="g8984"
         transform="matrix(1,0,0,-1,0,841.88977)"><path
           d="m 234.832,59.496 -3.074,0"
           style="fill:none;stroke:#000000;stroke-width:0.80000001;stroke-linecap:round;stroke-linejoin:round;stroke-miterlimit:10;stroke-opacity:1;stroke-dasharray:none"
           id="path8986"
           inkscape:connector-curvature="0" /></g><g
         id="g8988"
         transform="matrix(1,0,0,-1,0,841.88977)"><path
           d="m 234.832,35.809 -3.074,0"
           style="fill:none;stroke:#000000;stroke-width:0.80000001;stroke-linecap:round;stroke-linejoin:round;stroke-miterlimit:10;stroke-opacity:1;stroke-dasharray:none"
           id="path8990"
           inkscape:connector-curvature="0" /></g><text
         transform="matrix(0,1,1,0,228.94854,684.08181)"
         id="text8992"><tspan
           style="font-size:5.12456608px;font-variant:normal;font-weight:normal;writing-mode:lr-tb;fill:#000000;fill-opacity:1;fill-rule:nonzero;stroke:none;font-family:Arial;-inkscape-font-specification:ArialMT"
           x="0 2.8492587 4.2687635 23.68062 26.529879 27.949383 47.366364 50.215622 51.635128 71.041855 73.891121 75.310623 94.748955 97.598213 99.017715 118.42957 121.27883 122.69833"
           y="0"
           sodipodi:role="line"
           id="tspan8994">0.00.20.40.60.81.0</tspan></text>
<text
         transform="matrix(1,0,0,-1,294.05568,670.7394)"
         id="text8996"><tspan
           style="font-size:5.12456608px;font-variant:normal;font-weight:normal;writing-mode:lr-tb;fill:#000000;fill-opacity:1;fill-rule:nonzero;stroke:none;font-family:Arial;-inkscape-font-specification:ArialMT"
           x="0 3.2079782 6.0572371 7.4767418 8.6143951 11.463655 14.312913 15.732418"
           y="0"
           sodipodi:role="line"
           id="tspan8998">Patients</tspan></text>
</g><g
       id="g9000"><g
         id="g9002"
         clip-path="url(#clipPath9004)"><g
           id="g9008"
           transform="translate(0,-0.110229)"><g
             id="g9010" /><g
             id="g9016"><g
               clip-path="url(#clipPath9012)"
               id="g9018"><g
                 id="g9020"><path
                   d="m 235.453,687.754 0,118.437 135.52,0 0,-118.437 -135.52,0 z"
                   style="fill:#32cd32;fill-opacity:1;fill-rule:nonzero;stroke:none"
                   id="path9022"
                   inkscape:connector-curvature="0" /><path
                   d="m 235.453,687.754 0,109.648 2.223,-1.523 2.222,-0.547 2.219,-1.398 2.223,-0.383 2.219,-1.106 2.226,-0.304 2.219,0.011 2.223,-1.394 2.218,0.035 2.227,-0.535 2.219,0.078 2.222,-0.504 2.219,-0.16 2.223,-0.25 2.222,-0.192 2.223,0.2 2.219,-0.059 2.222,-0.766 2.219,-0.007 2.227,-0.086 2.218,-0.032 2.223,0.047 2.219,-0.25 2.226,0.137 2.219,0.141 2.223,0.414 2.219,0 2.222,0.094 2.223,0.035 2.223,-0.711 2.218,0.168 2.223,-0.024 2.223,0.387 2.222,0.043 2.219,0.062 2.223,-0.058 2.218,0.242 2.227,-0.457 2.219,0.074 2.222,-1.074 2.219,1.324 2.227,-0.277 2.222,0.312 2.219,0.18 2.219,3.449 2.223,-3.636 2.226,-5.942 2.219,-0.144 2.223,0.113 2.218,-0.027 2.219,-0.336 2.227,0.101 2.222,0.004 2.219,-0.094 2.223,-5.867 2.222,0.012 2.223,15.719 2.219,-0.09 2.222,0.012 2.219,3.55 2.227,-0.117 0,-108.242 -135.52,0 z"
                   style="fill:#cd2626;fill-opacity:1;fill-rule:nonzero;stroke:none"
                   id="path9024"
                   inkscape:connector-curvature="0" /><path
                   d="m 235.453,687.754 0,85.777 2.223,-5.269 2.222,-3.672 2.219,-2.742 2.223,-2.145 2.219,-6.605 2.226,-0.981 2.219,-0.324 2.223,-0.77 2.218,-0.121 2.227,-0.203 2.219,-0.23 2.222,-1.172 2.219,-0.047 2.223,-0.676 2.222,-0.734 2.223,-0.531 2.219,-0.043 2.222,-0.196 2.219,-0.121 2.227,-0.008 2.218,-0.074 2.223,-0.012 2.219,-0.07 2.226,-0.023 2.219,-0.106 2.223,-0.008 2.219,-0.05 2.222,0 2.223,-0.004 2.223,-0.02 2.218,-0.015 2.223,-0.004 2.223,0 2.222,-0.004 2.219,-0.031 2.223,-0.137 2.218,-0.008 2.227,-0.039 2.219,-0.027 2.222,-0.082 2.219,-0.024 2.227,-0.07 2.222,-0.039 2.219,-0.063 2.219,-0.019 2.223,-0.133 2.226,-2.508 2.219,-0.098 2.223,-3.265 2.218,-0.156 2.219,-0.039 2.227,-0.223 2.222,-0.035 2.219,-0.055 2.223,-0.32 2.222,-0.2 2.223,-0.058 2.219,-1.43 2.222,-0.25 2.219,-12.324 2.227,-0.207 0,-36.957 -135.52,0 z"
                   style="fill:#eeee00;fill-opacity:1;fill-rule:nonzero;stroke:none"
                   id="path9026"
                   inkscape:connector-curvature="0" /></g></g></g></g></g></g><g
       id="g9028"><text
         transform="matrix(1,0,0,-1,49.657141,808.57145)"
         id="text9030"><tspan
           style="font-size:8px;font-variant:normal;font-weight:normal;writing-mode:lr-tb;fill:#000000;fill-opacity:1;fill-rule:nonzero;stroke:none;font-family:Arial;-inkscape-font-specification:ArialMT"
           x="0 4.448 165.13898 169.58698 327.29855 331.29855"
           y="0"
           sodipodi:role="line"
           id="tspan9032">a)b)c)</tspan></text>
</g></g></svg>