<?xml version="1.0" encoding="UTF-8" standalone="no"?>
<!-- Generator: Adobe Illustrator 14.0.0, SVG Export Plug-In . SVG Version: 6.00 Build 43363)  -->

<svg
   xmlns:dc="http://purl.org/dc/elements/1.1/"
   xmlns:cc="http://creativecommons.org/ns#"
   xmlns:rdf="http://www.w3.org/1999/02/22-rdf-syntax-ns#"
   xmlns:svg="http://www.w3.org/2000/svg"
   xmlns="http://www.w3.org/2000/svg"
   xmlns:sodipodi="http://sodipodi.sourceforge.net/DTD/sodipodi-0.dtd"
   xmlns:inkscape="http://www.inkscape.org/namespaces/inkscape"
   version="1.1"
   id="Layer_1"
   x="0px"
   y="0px"
   width="964.38745"
   height="532.32068"
   viewBox="0 0 964.38745 532.3207"
   enable-background="new 0 0 1024 1050.861"
   xml:space="preserve"
   inkscape:version="0.48.4 r9939"
   sodipodi:docname="zoonosis.svg"><metadata
   id="metadata3045"><rdf:RDF><cc:Work
       rdf:about=""><dc:format>image/svg+xml</dc:format><dc:type
         rdf:resource="http://purl.org/dc/dcmitype/StillImage" /><dc:title></dc:title></cc:Work></rdf:RDF></metadata><defs
   id="defs3043" /><sodipodi:namedview
   pagecolor="#ffffff"
   bordercolor="#666666"
   borderopacity="1"
   objecttolerance="10"
   gridtolerance="10"
   guidetolerance="10"
   inkscape:pageopacity="0"
   inkscape:pageshadow="2"
   inkscape:window-width="1366"
   inkscape:window-height="706"
   id="namedview3041"
   showgrid="false"
   inkscape:zoom="0.49388075"
   inkscape:cx="473.26392"
   inkscape:cy="94.610693"
   inkscape:window-x="-8"
   inkscape:window-y="-8"
   inkscape:window-maximized="1"
   inkscape:current-layer="Layer_1"
   fit-margin-top="0"
   fit-margin-left="0"
   fit-margin-right="0"
   fit-margin-bottom="0" />
<path
   d="m 720.77192,65.173608 c 0,0 -2.909,-2.278 -1.518,-4.808 1.391,-2.53 10.754,-11.007 15.182,-19.863 4.429,-8.855999 4.302,-10.121999 6.579,-13.157999 2.277,-3.037 2.151,-7.591 4.556,-12.146 2.403,-4.555 9.236,-6.1989995 16.574,-6.9579995 7.337,-0.759 17.965,6.1989995 23.784,15.1819995 5.82,8.983 7.845,11.26 7.845,25.176999 0,13.917 -2.657,22.646 4.808,29.099 7.464,6.452 22.774,7.591 36.563,13.664 13.79,6.073 19.231,8.729002 26.569,15.941002 7.339,7.211 11.767,9.868 21.763,18.724 9.993,8.857 28.593,25.936 28.593,25.936 0,0 -16.701,-7.464 -18.6,-8.729 0,0 8.351,9.363 10.628,20.622 2.277,11.26 0.38,11.766 4.555,19.736 4.175,7.971 5.946,18.601 3.922,25.938 -2.024,7.339 -1.645,5.061 -5.693,1.771 -4.048,-3.288 -5.567,-1.519 -24.292,-22.52 0,0 -6.324,0.253 -8.981,-2.151 0,0 -0.253,7.719 -1.267,12.905 -1.011,5.187 -1.644,13.915 0.38,18.344 2.025,4.429 8.857,6.072 13.032,5.82 4.176,-0.252 6.199,3.543 1.771,3.543 -4.427,0 -9.235,0 -13.79,-2.023 -4.555,-2.025 -7.084,1.011 -9.868,1.39 -2.783,0.381 -24.672,0.888 -24.798,-2.022 -0.127,-2.911 1.012,-3.796 4.175,-3.67 3.163,0.127 7.718,1.013 13.537,-0.126 5.82,-1.14 8.224,-4.175 8.857,-7.338 0.632,-3.164 3.289,-10.501 1.012,-16.828 -2.277,-6.325 -2.024,-6.831 -2.024,-8.096 0,0 -18.851,2.151 -33.021,-7.465 0,0 -3.795,-2.909 -3.669,0 0.127,2.91 1.014,7.844 -3.795,16.194 -4.808,8.35 -6.2,13.284 -3.163,18.092 3.036,4.809 5.313,7.466 3.289,7.466 -2.023,0 -3.162,-3.165 -5.187,-4.429 -2.024,-1.266 -3.415,1.644 -2.15,2.403 1.265,0.758 3.542,2.404 1.391,2.784 -2.149,0.379 -4.809,0.252 -9.363,-0.633 -4.554,-0.888 -9.868,0.253 -15.308,0.506 -5.44,0.252 -13.79,1.01 -15.056,-1.013 -1.266,-2.024 -3.543,-1.898 -5.313,-1.392 -1.771,0.505 -6.453,2.024 -4.302,-1.013 2.151,-3.036 6.199,-3.415 8.097,-1.897 1.898,1.518 4.682,1.771 5.062,0.38 0.38,-1.391 1.897,-3.543 4.428,-1.644 2.53,1.897 2.909,1.39 8.856,1.39 5.945,0 10.882,-0.252 12.271,-4.681 1.393,-4.429 4.555,-8.856 6.959,-13.284 2.404,-4.43 3.923,-12.653 3.163,-19.99 0,0 -7.213,-3.288 -9.995,-10.248 -2.784,-6.958 -2.024,-6.578 -6.453,-11.766 -4.427,-5.188 -22.772,-17.966 -30.363,-22.521 -7.591,-4.554 -17.84,-11.893 -21.635,-24.292 -3.796,-12.398002 -2.656,-21.761002 0.633,-29.226002 3.289,-7.465 14.296,-17.838 17.965,-23.279 3.669,-5.44 4.049,-11.133 2.53,-14.043 -1.518,-2.91 -3.036,-5.188 -9.109,-3.796 -6.073,1.392 -12.777,7.212 -17.839,12.272 -5.063,5.063 -16.326,16.197 -22.777,11.769 z"
   id="path3017"
   inkscape:connector-curvature="0" />

<path
   d="m 194.4748,33.78708 c 0,0 -0.485,-1.699 -2.548,-3.883 -2.063,-2.185 -0.243,-3.277 -1.335,-8.131 -1.093,-4.855 -2.427,-9.952 -10.68,-14.6849995 -8.252,-4.732 -20.51,-8.131 -28.397,-6.79500002 -7.889,1.33500002 -19.903,5.58300002 -27.912,21.35899952 -8.01,15.775998 -9.487,16.261998 -8.981,22.207998 0.22,2.588 -0.637,5.721 -3.117,9.83 h -0.007 c -0.479,0.971 -0.971,1.214 -0.971,1.214 -20.266,-0.849 -20.388,6.675 -26.941,12.01401 -6.554,5.34 -12.985,17.961 -15.655,24.878 -2.67,6.917 -0.121,23.786002 2.549,33.980002 2.67,10.194 11.165,25.728 11.165,25.728 -0.363,3.034 1.821,4.976 4.005,10.68 2.184,5.704 4.004,12.136 4.369,16.626 0.365,4.491 0.728,6.796 -0.971,9.83 -1.698,3.034 1.093,4.854 2.428,3.762 1.335,-1.092 6.917,-1.82 7.524,-1.82 0.606,0 0.243,-1.699 1.578,-1.82 1.334,-0.122 1.213,0.121 2.548,1.335 1.335,1.213 13.35,0 16.748,0 3.398,0 7.16,0.728 8.495,-0.122 1.334,-0.85 2.063,-1.82 3.277,-1.82 1.213,0 2.305,0.607 2.305,0.607 0,0 0.85,-0.364 -0.121,-1.456 -0.971,-1.092 -1.941,-1.699 -0.485,-1.942 1.456,-0.243 19.175,-2.548 20.388,-2.306 1.214,0.243 1.942,2.306 2.67,2.306 0.729,0 1.699,-2.548 2.063,-2.548 0.364,0 2.063,-0.486 2.063,-0.486 -0.243,-1.82 -7.524,-3.277 -7.524,-3.277 l -0.729,-1.092 c -1.213,-2.306 -17.354,-0.607 -19.903,-0.729 -2.548,-0.121 -7.16,-8.252 -11.164,-17.718 -4.004,-9.466 -3.641,-12.257 2.912,-15.048 6.555,-2.792 19.539,-10.559 29.247,-19.054 9.709,-8.495 18.568,-32.038002 19.296,-39.077002 0.729,-7.039 -0.971,-21.72301 -5.825,-28.15501 -1.221,-1.618 -3.427,-4.146 -3.071,-4.491 h 0.007 c 0.248,-0.428 0.963,-0.985 2.548,-1.699 4.854,-2.185 9.952,-3.034 17.84,-8.859 0,0 3.52,-1.092 5.825,-1.092 2.307,0 3.642,1.941 8.132,0.607 -0.004,0 0.36,-4.611 -3.645,-8.858998 z m -84.555,148.38001 c 0,0 -7.444,1.133 -9.223,-0.323 -1.781,-1.456 -7.767,-22.492 -7.929,-24.11 -0.161,-1.618 2.104,-7.605 2.104,-7.605 0,-0.647 12.783,-0.485 12.783,-0.485 0.809,1.779 6.635,9.709 9.062,13.754 2.427,4.046 1.779,7.767 1.617,9.385 -0.161,1.618 -8.414,9.384 -8.414,9.384 z m 10.194,-2.912 c 1.294,0.809 4.854,4.693 4.854,4.693 0,0 -1.294,0.485 -4.369,-0.324 -3.074,-0.809 -5.663,-0.809 -5.663,-0.809 1.941,-4.53 3.883,-4.369 5.178,-3.56 z"
   id="path3021"
   inkscape:connector-curvature="0" />
<path
   d="m 628.46784,517.642 c -3.737,0 -9.489,-10.627 -13.284,-14.424 -3.796,-3.795 -6.073,-3.415 -4.934,-12.904 1.138,-9.488 -0.76,-41.372 -3.037,-46.305 -2.277,-4.936 -3.416,-8.351 -2.657,-15.563 0.759,-7.211 -0.38,-12.905 -3.416,-22.014 -3.037,-9.109 -8.73,-20.496 -9.869,-32.642 -1.139,-12.146 -14.044,-31.882 -1.897,-55.415 0,0 -9.11,-3.416 -9.11,-6.073 0,-2.657 7.591,-1.519 9.868,-1.519 2.277,0 3.796,-0.759 3.796,-0.759 0,0 16.321,-21.635 45.546,-25.43 29.225,-3.796 94.509,6.453 134.362,20.496 39.854,14.043 37.197,11.006 46.307,12.525 9.11,1.519 24.292,3.416 45.167,31.124 0,0 6.452,7.971 7.212,11.766 0.758,3.796 7.211,12.905 11.007,15.562 3.796,2.657 13.664,17.46 13.664,17.46 0,0 15.182,0.379 30.744,6.452 15.562,6.073 19.356,11.766 24.291,12.146 4.934,0.38 12.52498,1.898 12.14598,4.555 -0.38,2.657 -7.21198,4.935 -11.76598,3.037 -4.555,-1.897 -5.314,-2.657 -11.387,-0.379 -6.073,2.278 -16.7,5.693 -23.912,0.758 0,0 -0.76,19.737 -0.76,26.949 0,7.212 -1.897,11.007 0.76,20.497 2.657,9.488 3.795,7.97 4.935,12.904 1.139,4.935 3.036,4.935 4.934,6.073 1.898,1.138 3.037,2.656 -0.759,5.693 -3.796,3.035 -9.489,8.73 -16.321,9.868 -6.832,1.138 -5.693,1.897 -8.729,-1.519 -3.036,-3.416 -10.248,-6.831 -13.664,-7.971 -3.416,-1.139 -22.773,-8.729 -33.401,-18.978 0,0 5.693,20.876 18.978,39.854 0,0 4.935,4.934 -0.758,4.934 -5.694,0 -14.044,2.277 -17.08,-1.138 -3.037,-3.416 -6.832,-7.971 -6.832,-7.971 0,0 -4.175,3.035 -6.073,-3.037 -1.898,-6.072 -2.657,-17.46 -5.313,-22.015 -2.657,-4.555 -7.212,-18.218 -13.285,-25.809 -6.072,-7.591 -15.94,-27.708 -15.94,-30.744 0,-3.038 -2.657,-2.657 -8.351,-3.796 -5.693,-1.139 -10.628,-0.758 -10.628,-0.758 0,0 0,5.693 0,11.766 0,6.073 1.519,9.109 1.519,12.904 0,3.795 -2.277,15.562 -3.037,21.255 -0.759,5.694 1.898,16.701 2.278,21.255 0.379,4.555 0.759,17.839 3.795,22.773 3.037,4.935 4.555,6.833 -2.277,6.452 -6.831,-0.379 -10.628,0 -13.284,-0.379 -2.656,-0.38 -6.832,-15.183 -6.832,-15.183 0,0 -3.036,6.832 -4.935,4.175 -1.897,-2.656 0,-15.94 0,-20.495 0,-4.555 1.519,-7.212 -0.759,-22.395 -2.277,-15.182 -5.693,-36.057 -9.488,-42.51 -3.797,-6.452 -3.797,-16.321 -7.592,-18.219 -3.795,-1.897 -26.949,-3.795 -33.021,-3.795 -6.073,0 -12.905,2.657 -25.431,1.897 -12.525,-0.759 -23.912,-7.97 -29.225,-8.35 -5.314,-0.38 -6.453,-1.139 -11.766,8.73 -5.314,9.868 -7.212,22.014 -9.489,26.569 -2.277,4.555 -4.555,10.627 -4.555,10.627 0,0 -3.795,20.876 0.759,33.781 4.554,12.905 4.175,12.904 4.175,15.941 0,3.036 4.176,21.635 6.453,25.05 2.274,3.419 1.135,2.661 -17.842,2.661 z"
   id="path3023"
   inkscape:connector-curvature="0" />
<path
   d="m 640.17444,58.371928 c -3.542,-1.267 -4.807,-4.303 -7.59,-7.341 -2.783,-3.035 -8.604,-12.145 -8.604,-13.915 0,-1.771004 4.555,-6.579004 6.832,-9.363004 2.278,-2.782 -1.011,-5.061 -4.048,-6.832 -3.037,-1.771 -9.109,-0.505 -11.64,0.76 -2.53,1.264 -8.604,-5.567 -10.375,-9.615 -1.771,-4.0499995 -5.82,-4.8079995 -8.604,-4.8079995 -2.784,0 -6.578,3.2879995 -7.844,6.0719995 -1.265,2.783 -2.277,6.073 -3.036,3.796 -0.759,-2.277 -5.504,-5.378 -9.553,-5.314 -4.049,0.064 -5.187,3.86 -3.606,6.138 1.582,2.276 4.555,4.489 2.025,7.525 -2.53,3.036 -2.531,0 -15.182,3.036 -12.652,3.036 -21.256,0.506 -33.908,-1.518 -12.652,-2.024 -25.304,0.505 -49.089,4.554 -23.786,4.05 -86.538,3.543 -95.142,3.543 -8.603,0 -31.376,-0.506 -39.474,-4.555 -8.096,-4.049 -22.267,1.518 -22.267,1.518 -12.652,5.819004 -12.905,19.992004 -12.905,26.571004 0,6.579 0.252,14.423 -4.808,24.797 -5.061,10.374 -8.098,17.713002 -11.134,21.762002 -3.037,4.047 -9.616,10.374 -11.134,15.688 -1.518,5.313 -4.555,6.58 -4.555,12.146 0,5.568 7.086,7.592 11.387,4.303 4.302,-3.289 4.049,-14.423 6.073,-18.472 2.024,-4.049 6.832,-16.953 12.652,-30.111002 5.82,-13.158 8.856,-26.569 8.856,-26.569 0,0 0.506,7.085 1.265,14.93 0.759,7.845 6.073,38.714002 6.327,50.102002 0.253,11.387 -2.024,21.761 -5.63,27.644 -3.605,5.883 2.088,15.752 1.898,23.342 -0.19,7.592 1.708,15.563 2.087,19.357 0.379,3.797 -0.189,17.46 -0.189,21.445 0,3.986 -1.329,5.884 -1.329,8.54 0,2.657 15.562,2.087 18.029,2.087 0.44,0 0.662,-0.067 0.738,-0.188 1.795,0.012 12.44,0.183 14.634,-0.001 2.277,-0.19 -2.847,-4.555 -3.417,-5.504 -0.569,-0.948 -1.518,-16.7 1.519,-22.394 3.037,-5.694 1.708,-15.183 1.708,-23.912 0,-8.729 5.313,-16.321 5.313,-16.321 6.833,-3.416 23.343,-4.175 31.124,-3.036 7.781,1.139 19.547,10.059 36.627,7.971 17.08,-2.088 34.35,-6.263 46.116,-12.146 11.766,-5.883 17.27,-5.313 20.116,-4.175 2.846,1.138 9.109,4.744 9.109,4.744 0,0 0.379,7.972 1.328,14.234 0.949,6.263 2.088,17.08 2.277,18.978 0.19,1.897 -0.379,17.839 -0.759,20.495 -0.38,2.657 0.19,1.52 -2.087,9.489 -2.277,7.971 7.781,7.212 16.321,7.212 8.54,0 5.693,-2.087 5.693,-2.087 -0.379,-2.848 -6.135,-6.2 -6.135,-10.503 0,-4.301 0.506,-10.627 0.506,-16.952 0,-6.326 -1.265,-9.616 1.771,-14.171 3.036,-4.555 3.289,-18.724 3.289,-18.724 0,0 7.591,0.759 11.134,0.506 3.542,-0.253 19.23,-10.375 26.821,-24.544 7.591,-14.17 5.567,-30.365 6.326,-31.63 0.758,-1.264 4.807,-8.857002 9.616,-13.411002 4.807,-4.555 11.639,-14.676 11.639,-14.676 1.771,0 11.893,0.505 16.701,0.505 4.807,0 13.664,-2.276 16.953,-2.276 3.289,0 0,2.023 11.893,2.023 11.893,0 11.639,-7.843 12.398,-12.397 0.762,-4.557 -1.515,-7.088 -5.057,-8.352 z m -304.594,161.943002 c -0.521,3.451 -0.707,5.605 -0.68,6.946 -0.491,-0.522 -0.919,-1.084 -1.029,-1.634 -0.379,-1.897 -3.226,-3.035 -2.846,-7.78 0.379,-4.744 1.518,-9.679 1.518,-12.904 0,-3.228 0.569,-14.233 0.569,-14.233 0,0 3.606,6.073 3.606,8.16 0.001,2.087 0.38,11.385 -1.138,21.445 z"
   id="path3025"
   inkscape:connector-curvature="0" />

<path
   d="m 241.32106,325.30317 c -1.641,-7.158 -2.685,-10.588 -2.685,-14.315 0,-3.728 2.238,-9.543 2.983,-13.272 0.745,-3.728 -3.132,-0.298 -1.79,-8.947 1.343,-8.64901 2.982,-7.00801 0.895,-11.33301 -2.088,-4.324 -0.895,-3.579 0.597,-5.965 1.492,-2.386 -11.184,-15.508 -15.955,-19.684 -4.771,-4.175 -6.562,-7.754 -11.035,-8.052 -4.473,-0.299 -2.685,1.044 -5.667,-4.176 -2.981,-5.219 -13.421,-3.429 -20.876,4.474 -7.456,7.904 -11.482,31.017 -11.632,33.104 -0.148,2.088 -1.938,2.088 -1.641,10.58701 0.3,8.5 -6.857,15.21 -16.999,22.368 -10.14,7.158 -32.209,4.026 -44.14,3.43 -11.929,-0.596 -21.473,-15.21 -25.797,-24.902 -4.324,-9.69301 -12.079,-26.24501 -18.789,-34.44701 -6.711,-8.202 -25.797999,-19.833 -25.797999,-19.833 l 0.746,-0.746 c 2.981,-1.566 4.697,-3.579 4.025,-6.486 -0.67,-2.908 -1.788,-4.772 -3.504,-3.206 -1.715,1.565 -3.504,2.46 -3.429,-0.447 0.074,-2.908 -1.716,-3.132 -2.61,-0.746 -0.894,2.386 -1.417,2.833 -1.938,-0.149 -0.521,-2.982 -2.088,0.448 -3.355,2.536 -1.267,2.087 -2.236,-0.448 -4.548,-4.027 -2.312,-3.579 -2.46,0.149 -2.312,2.833 0.149,2.685 -1.565,2.386 -3.206,0 -1.64,-2.386 -2.162,0.671 -2.088,3.057 0.074,2.386 -2.385,1.715 -2.684,-0.075 -0.299,-1.789 -2.087,4.175 -2.685,6.263 -0.597,2.088 0,0 -2.385,1.491 -2.387,1.492 0.895,9.842 -2.387,9.842 -3.2819996,0 -1.7889996,5.07 -1.7889996,5.07 -7.755,3.579 -8.649,9.842 -8.649,9.842 -0.745,2.088 0.895,1.044 0.895,1.044 3.28,-2.833 8.9479996,-3.132 12.8249996,-3.132 3.876,0 1.788,1.492 1.788,1.492 -1.788,4.175 -2.236,7.605 0.15,13.42 2.386,5.815 10.14,6.562 12.675,6.562 2.534,0 4.771,-3.281 4.771,-3.281 0,0 1.193,-0.895 2.535,2.087 1.342,2.982 0,7.307 -1.342,16.10501 -1.343,8.798 -2.238,21.92 -5.816,32.657 -3.579,10.737 -4.622,20.131 -6.263,41.753 -1.641,21.623 0.896,28.184 3.132,33.104 2.236,4.921 18.342,22.219 22.368,24.456 4.025,2.237 8.798,-0.298 11.333,0.895 2.533999,1.193 9.542999,7.605 12.375999,8.053 2.834,0.447 7.903,7.604 13.57,9.395 5.666,1.789 5.517,2.236 12.228,10.289 6.71,8.053 6.114,3.728 7.157,8.947 1.045,5.219 2.833,7.754 5.519,9.097 2.684,1.342 9.841,3.877 11.184,5.07 1.342,1.192 0.895,4.623 -3.132,18.64 -4.027,14.017 -10.14,20.131 -11.632,21.473 -1.491,1.342 -4.175,0.596 -6.858,0.149 -2.685,-0.447 -4.921,-2.237 -8.948,-2.237 -4.026,0 -0.298,3.43 1.193,3.43 1.492,0 6.113,1.044 7.755,2.236 1.64,1.193 -10.588,0.746 -14.465,0.448 -3.877,-0.298 -5.815,0.746 -11.185,3.43 -5.367,2.684 -1.938,3.131 5.07,3.131 7.009,0 17.447,0.745 21.921,-0.597 4.474,-1.342 3.28,0.149 3.28,0.149 -0.82,1.492 -1.342,4.101 0.97,4.623 2.311,0.521 5.965,-4.101 9.021,-7.158 3.057,-3.057 4.848,-4.25 6.263,-4.25 1.417,0 5.965,2.535 10.066,2.759 4.101,0.224 5.517,-0.671 2.236,-2.163 -3.281,-1.492 -11.931,-0.67 -11.259,-8.574 0.671,-7.903 3.978,-12.327 3.978,-12.327 1.391,0.198 8.847,1.59 13.021,1.59 4.176,0 4.574,-0.199 4.574,0.795 0,0.994 -3.181,3.38 -5.17,4.772 -1.989,1.391 -9.94,3.778 -12.924,6.362 -2.981,2.584 4.971,1.59 7.755,0.795 2.783,-0.796 3.777,-1.988 5.765,-2.187 1.988,-0.198 11.731,-5.766 13.521,-7.953 1.79,-2.188 6.76,-2.188 8.55,-1.392 1.79,0.796 1.989,3.977 5.17,8.351 3.181,4.375 3.181,2.584 3.181,-0.198 0,-2.784 -2.982,-5.568 -3.38,-9.743 -0.398,-4.175 -2.187,-9.146 -2.387,-10.935 -0.198,-1.79 13.123,1.392 14.315,0.994 1.193,-0.398 -1.589,-1.988 -5.965,-2.783 -4.375,-0.795 -7.555,-1.193 -10.139,-6.362 -2.586,-5.17 -0.796,-18.491 -0.796,-18.491 0,0 7.158,0 13.719,-0.199 6.562,-0.199 16.503,-7.754 25.848,-13.719 9.344,-5.965 21.87,-25.35 24.704,-39.069 2.833,-13.719 1.341,-13.57 -0.447,-18.789 -1.79,-5.219 -1.641,-9.395 -1.641,-13.57 0,-4.175 9.842,-9.544 9.692,-17.596 -0.15,-8.052 -0.299,-13.868 1.938,-12.973 2.237,0.895 4.475,-2.684 7.457,-5.965 2.986,-3.28 1.047,-9.842 -0.593,-16.999 z m -92.999,164.428 c -2.188,4.573 -3.977,8.748 -7.456,9.345 -3.48,0.596 -14.315,-0.497 -14.315,-0.497 0,0 4.672,-14.615 8.648,-18.59 3.976,-3.977 6.76,-3.182 9.644,-7.158 2.882,-3.977 6.361,-6.661 6.66,-1.988 0.297,4.672 -0.995,14.316 -3.181,18.888 z"
   id="path3029"
   inkscape:connector-curvature="0" />
<path
   d="m 384.57546,344.8284 c 0,0 1.518,-0.76 1.518,-7.338 0,-6.579 -1.265,-21.002 8.351,-34.919 9.615,-13.917 16.193,-17.207 20.748,-14.17 4.554,3.037 6.327,28.087 5.314,35.678 -1.012,7.591 -7.591,16.194 -7.591,22.014 0,5.82 -2.024,6.327 -2.277,9.616 -0.252,3.289 1.518,9.869 2.277,11.134 l 0.633,1.012 c 0,0 13.095,-7.591 24.481,-7.401 11.386,0.19 29.605,-0.759 50.481,16.701 20.876,17.46 24.671,37.386 24.86,46.875 0.19,9.489 -2.277,11.387 -2.277,11.387 0,0 2.467,-2.087 7.021,-2.657 0,0 4.175,-0.379 4.175,-2.467 0,0 -5.124,15.562 -10.627,20.687 -5.503,5.124 -5.313,13.854 -10.247,15.183 -4.935,1.328 -7.022,1.518 -7.022,1.518 0,0 0.759,5.124 -0.569,6.263 -1.329,1.139 -1.329,3.606 -1.329,5.504 0,1.898 0,3.415 -13.854,6.072 -13.854,2.657 -36.058,8.161 -40.043,7.212 -3.985,-0.948 -4.935,-0.948 -7.971,-0.948 -3.036,0 -12.905,0.189 -8.919,-4.556 3.985,-4.744 4.744,-4.934 6.832,-8.351 2.087,-3.415 1.708,-5.502 11.197,-6.642 9.489,-1.139 11.387,-2.087 11.387,-2.087 0,0 -19.167,1.139 -22.773,1.518 -3.605,0.38 -7.211,0.569 -7.211,0.569 0,0 -4.175,9.68 -4.365,13.475 -0.19,3.795 0.189,3.985 -3.795,6.073 -3.986,2.087 -10.438,3.795 -16.701,3.605 -6.263,-0.19 -10.438,0.189 -7.021,-5.693 3.416,-5.883 7.591,-7.591 7.78,-9.868 -0.569,0 -4.744,0.379 -7.591,-1.139 -2.847,-1.519 -4.744,-1.328 -0.379,-5.124 4.365,-3.797 4.365,-5.314 4.365,-7.401 0,-2.088 0.19,-9.3 -4.745,-13.854 -4.934,-4.554 -21.825,-11.007 -25.24,-17.27 -3.416,-6.262 -6.452,-16.89 -2.657,-27.138 l 0.759,-1.139 c 0,0 -4.744,-6.262 -5.693,-9.869 -0.949,-3.604 -2.277,-11.955 2.657,-18.978 l 1.897,-2.846 c 0,0 -0.949,-3.416 0,-5.883 0.949,-2.467 0.949,-2.467 0.949,-2.467 0,0 -0.189,-5.314 -0.759,-7.401 -0.57,-2.087 -1.518,-2.277 -3.227,-3.795 -1.708,-1.519 0,-3.036 -1.518,-6.263 -1.519,-3.226 -6.643,-8.919 -9.869,-13.664 -3.226,-4.744 -10.817,-28.466 -10.817,-34.16 0,-5.693 0.19,-7.591 5.693,-4.175 5.504,3.416 20.307,16.89 26.189,21.825 5.883,4.934 14.803,18.978 14.803,22.962 0,0 -0.759,2.467 0,2.657 0.758,0.186 2.72,0.123 2.72,0.123 z"
   id="path3031"
   inkscape:connector-curvature="0" />


</svg>